<mxfile host="65bd71144e">
    <diagram id="SVfO_DigPPyCwP6tujH3" name="Page-1">
        <mxGraphModel dx="2600" dy="849" grid="1" gridSize="10" guides="1" tooltips="1" connect="1" arrows="1" fold="1" page="1" pageScale="1" pageWidth="2336" pageHeight="1654" math="0" shadow="0">
            <root>
                <mxCell id="0"/>
                <mxCell id="1" parent="0"/>
                <mxCell id="2" value="UDSClient" style="rounded=0;whiteSpace=wrap;html=1;" vertex="1" parent="1">
                    <mxGeometry x="860" y="410" width="120" height="60" as="geometry"/>
                </mxCell>
                <mxCell id="3" value="BusCan" style="rounded=0;whiteSpace=wrap;html=1;" vertex="1" parent="1">
                    <mxGeometry x="1080" y="340" width="120" height="60" as="geometry"/>
                </mxCell>
                <mxCell id="4" value="BusEth" style="rounded=0;whiteSpace=wrap;html=1;" vertex="1" parent="1">
                    <mxGeometry x="1080" y="460" width="120" height="60" as="geometry"/>
                </mxCell>
                <mxCell id="5" value="UI" style="rounded=0;whiteSpace=wrap;html=1;" vertex="1" parent="1">
                    <mxGeometry x="670" y="410" width="120" height="60" as="geometry"/>
                </mxCell>
            </root>
        </mxGraphModel>
    </diagram>
</mxfile>